# xmcd
#
# Track frame offsets:
#	150
#	17377
#	38244
#	56319
#	76743
#	94767
#	111547
#	125318
#	143232
#	157534
#	172694
#	192264
#	208125
#	222677
#	240344
#	257032
#	269921
#	286701
#	302074
#	317927
#	332634
#
# Disc length: 4628 seconds
#
# Revision: 0
# Processed by: cddbd v1.5.2PL0 Copyright (c) Steve Scherf et al.
# Submitted via: audiograbber 1.83.01
#
DISCID=23121215
DTITLE=Various Artist - CD for MusicBrainz and FreeDB
DYEAR=2009
DGENRE=Ballad
TTITLE0=Best Country December 09
TTITLE1=Best Country December 09
TTITLE2=Best Country December 09
TTITLE3=Best Country December 09
TTITLE4=Best Country December 09
TTITLE5=Best Country December 09
TTITLE6=Best Country December 09
TTITLE7=Best Country December 09
TTITLE8=Best Country December 09
TTITLE9=Best Country December 09
TTITLE10=Best Country December 09
TTITLE11=Best Country December 09
TTITLE12=Best Country December 09
TTITLE13=Best Country December 09
TTITLE14=Best Country December 09
TTITLE15=Best Country December 09
TTITLE16=Best Country December 09
TTITLE17=Best Country December 09
TTITLE18=Best Country December 09
TTITLE19=Best Country December 09
TTITLE20=Best Country December 09
EXTD=
EXTT0=
EXTT1=
EXTT2=
EXTT3=
EXTT4=
EXTT5=
EXTT6=
EXTT7=
EXTT8=
EXTT9=
EXTT10=
EXTT11=
EXTT12=
EXTT13=
EXTT14=
EXTT15=
EXTT16=
EXTT17=
EXTT18=
EXTT19=
EXTT20=
PLAYORDER=
